# xmcd
#
# Track frame offsets: 
#        150
#        21594
#        48795
#        75020
#        90450
#        113625
#        136620
#        153123
#        168671
#        189527
#        217168
#        237954
#        256974
#        277584
#        294678
#
# Disc length: 4482 seconds
#
# Revision: 1
# Processed by: cddbd v1.5.2PL0 Copyright (c) Steve Scherf et al.
# Submitted via: ExactAudioCopy v0.99pb4
#
DISCID=bd11800f
DTITLE=Bruce Springsteen - Hollywood, 11-19-05(Rockaway Rob version-Di
DTITLE=sc 1)
DYEAR=2005
DGENRE=Rock and Roll
TTITLE0=Into The Fire
TTITLE1=Born In The USA
TTITLE2=Devils and Dust
TTITLE3=Lonesome Day
TTITLE4=Long Time Comin'
TTITLE5=Fade Away
TTITLE6=Meeting Across The River
TTITLE7=Johnny 99
TTITLE8=Ain't Got You
TTITLE9=All I'm Thinkin' About
TTITLE10=One Step Up
TTITLE11=Reno
TTITLE12=Roll Of The Dice
TTITLE13=Santa Anna
TTITLE14=Drive All Night
EXTD=
EXTT0=
EXTT1=
EXTT2=
EXTT3=
EXTT4=
EXTT5=
EXTT6=
EXTT7=
EXTT8=
EXTT9=
EXTT10=
EXTT11=
EXTT12=
EXTT13=
EXTT14=
PLAYORDER=
